<svg xmlns="http://www.w3.org/2000/svg" width="446" height="456" xmlns:v="https://vecta.io/nano"><defs><linearGradient y2=".133" x2=".573" y1="1.015" x1=".398" id="A"><stop stop-color="#6f4d9a" offset=".22"/><stop stop-color="#9e4694" offset=".98"/></linearGradient><linearGradient y2=".119" x2="1.039" y1=".749" x1=".235" id="B"><stop stop-color="#6f4d9a" offset="0"/><stop stop-color="#9e4694" offset=".66"/></linearGradient></defs><path fill="url(#A)" d="M0 174.391s0 31.478 146.344 31.478c59.753 0 85.692 30.11 85.692 79.079 0 28.594-5.629 53.528-30.29 64.965 15.013 8.937 24.925 28.236 29.928 60.764l2.668 16.942s5.133 28.451 15.255 28.451h-50.755c-8.581 0-15.112-28.451-15.112-28.451l-2.093-13.725c-5.362-32.525-19.919-47.179-44.583-47.179H95.592v89.355H45.907l.683-210.474c22.069 12.079 48.999 15.991 48.999 15.991v66.163h44.679c33.243 0 41.372-17.787 41.372-42.092s-8.129-37.258-41.372-37.258H95.589S0 231.574 0 174.391z"/><path fill="url(#B)" d="M305.856 105.161c-1.521.094-1.968-1.944-4.207-2.804-3.414-1.312-7.382 1.516-9.347 2.804-10.043 6.583-12.011 3.299-18.758 8.454-11.301 8.636-17.006 23.485-19.232 27.127-1.543 2.525-4.119-3.587-7.342-1.932-2.573 1.322-2.665 3.409-5.14 5.608-3.959 3.515-9.733 2.087-9.815 3.272-.034.492.89.923 1.397 1.16 3.427 1.601 6.96-.401 7.418.377.304.51-.82 2.032-2.955 3.645-6.48 4.903-11.52 2.54-15.144 6.698-1.749 2.005-.829 2.844-3.441 6.276-.982 1.291-3.88 10.888-10.666 13.916-5.024 2.242-6.243 23.57-7.3 23.816-6.507 1.522-5.55 1.902-12.455-4.362-3.01-2.731-16.03-2.801-20.322-3.278-.474-.051 17.075-18.995 18.597-24.7 2.218-8.308 13.643-11.64 17.182-11.893 2.536-.182-1.714-5.194-1.638-5.443 1-3.333 7.424-5.511 10.933-6.48 7.394-2.044 7.916-5.027 15.59-11.337 14.627-12.032 26.927-14.575 30.569-16.197 1.801-.802-5.979-1.947-6.073-3.846-.088-1.795 4.958-2.084 10.529-5.872 6.212-4.225 5.629-6.394 11.337-9.514 1.601-.875 5.538-1.975 10.933-3.038 9.709-1.914 12.148-4.253 15.386-5.872 2.187-1.093 1.823-4.657 1.823-4.657s7.491-3.441 16.316-5.528c6.573-1.556 12.43-8.643 15.064-10.465 1.816-1.258-4.223-2.686-4.049-4.05.252-1.983 8.378-.307 14.982-5.061 4.073-2.931 2.609-4.742 6.883-7.491 5.028-3.232 8.919-1.932 11.741-5.668 1.492-1.975.969-3.09 2.023-5.265 2.476-5.103 6.884-2.834 14.375-7.895s32.999-15.386 37.252-19.639 1.054-1.868 2.43-3.645C429.842 8.94 442.328 0 442.328 0l-29.91 24.77s-13.694 9.678-24.77 11.215c-1.409 2.175-2.315 4.718-5.608 8.88-1.525 1.926-4.322 5.465-8.879 8.879-5.249 3.937-9.128 4.933-8.879 6.543.273 1.771 5.203 2.081 5.14 2.804-.079.884-7.41-.149-14.955 1.868-9.117 2.44-16.735 8.852-15.891 11.216.65 1.816 4.678 1.109 6.543 1.868 4.135 1.689-39.448 16.826-37.388 21.03m-75.64 135.53c-2.652 3.846 11.902-12.352 14.678-19.19 2.23-5.486 3.22-10.009 3.524-11.583.069-.361.336-.652.689-.753 2.692-.769 14.035-4.435 19.287-12.874 5.581-8.967 13.764-23.889 14.837-25.848.077-.142.189-.262.325-.35l10.826-7.017a.97.97 0 0 1 1.018-.024l2.91 1.683c.374.215.848.161 1.16-.14l18.482-17.671c.264-.252.647-.337.99-.215l4.806 1.655a.97.97 0 0 1 .632 1.139l-1.054 4.594c-.249 1.087 1.23 1.673 1.789.707 2.88-4.966 7.531-11.82 13.986-17.764 11.224-10.338 31.808-24.837 33.625-26.113a.96.96 0 0 0 .222-.219l5.72-7.764a.96.96 0 0 0 .176-.468c.115-1.103 1.379-5.848 14.089-11.082 14.527-5.981 12.175-4.058 12.175-4.058s-10.255 0-4.271-5.769c5.824-5.614 20.788-15.884 21.581-16.428.021-.015.042-.03.063-.049l21.104-17.19c.923-.751-.049-2.188-1.088-1.607l-18.163 10.279-9.72 4.758c-.208.1-.372.271-.462.483l-2.115 4.805c-.061.137-.152.259-.267.356l-9.942 8.287c-.089.073-.189.13-.298.17-2.175.768-25.411 9.025-26.274 11.264-.738 1.914 1.106.711 1.817.197.177-.128.392-.194.611-.185l3.125.121c.818.031 1.234.994.699 1.611l-3.032 3.514c-.045.055-.097.104-.155.146-.847.632-7.858 5.878-14.869 11.686-4.284 3.548-6.814 5.134-8.196 5.842-.649.331-1.419-.14-1.419-.869 0-.844-.999-1.291-1.625-.723-6.498 5.869-30.451 27.3-34.691 28.221l-13.342 3.074c-.337.079-.608.334-.708.665l-1.871 6.176c-.067.219-.207.407-.398.532l-25.584 16.777a.96.96 0 0 1-.392.149c-1.519.222-10.808 1.659-12.181 3.815-.681 1.07-1.139 2.008-1.44 2.71-.271.641.203 1.349.899 1.349h5.76a.98.98 0 0 1 .956 1.166l-.091.462a.97.97 0 0 1-.58.708c-3.891 1.619-30.277 12.689-32.847 16.252-2.008 2.779-3.904.121-4.8-1.568-.307-.582-1.092-.699-1.555-.23-1.221 1.233-3.05 3.529-2.528 5.856.708 3.16-5.446 3.035-6.379 2.996-.082-.003-.161.003-.24.021-.966.209 7.628 3.259 4.669 5.431-1.826 1.34-11.735 6.756-14.46 6.346-1.072-.161-9.025 7.002-8.074 7.522 2.051 1.127 8.472 6.185 13.4 5.905m189.495-82.314s-14.891 7.263-15.96 4.487 1.069 2.776 1.069 2.776-17.091 8.974-20.295 12.604-19.439 11.963-19.439 11.963 4.699 6.622-4.912 7.476-9.827 2.351-9.827 2.351l-8.974 4.699s2.777 2.777-10.681 8.974-16.021 5.768-16.021 5.768-1.494 6.41-4.912 8.333-9.827 6.622-12.391 6.194-6.835 5.192-6.835 5.192 4.059 2.071 1.07 4.207-7.264 7.904-7.264 7.904l-3.417 2.136v8.748l-3.205 3.643s.213-8.819-1.923-8.682-15.38 5.039-15.38 5.039l1.507 3.643s-4.985 7.187-5.198 8.897 2.941 9.074 2.941 9.074l-1.978 17.16s10.565-22.479 16.975-26.75 13.527-9.445 15.663-9.66 10.468-8.545 10.468-8.545l14.098-16.811s-8.758 6.342-10.468 4.635 15.808-15.167 15.808-15.167 24.782-4.487 30.548-11.109 5.769-9.399 5.769-9.399 7.476.212 8.973-2.136 8.758-7.05 8.758-7.05l4.487-9.615s8.545-6.41 12.604-6.622 7.05-5.553 7.05-5.553-8.117 2.992-9.399 2.564 11.75-7.692 11.75-7.692l18.953-13.673-.012-.003z"/></svg>